<?xml version="1.0" encoding="UTF-8"?>
<!DOCTYPE svg PUBLIC "-//W3C//DTD SVG 1.1//EN" "http://www.w3.org/Graphics/SVG/1.1/DTD/svg11.dtd">
<!-- Creator: CorelDRAW 2017 -->
<svg xmlns="http://www.w3.org/2000/svg" xml:space="preserve" width="5.36461in" height="4.50482in" version="1.1" style="shape-rendering:geometricPrecision; text-rendering:geometricPrecision; image-rendering:optimizeQuality; fill-rule:evenodd; clip-rule:evenodd"
viewBox="0 0 5364.61 4504.82"
 xmlns:xlink="http://www.w3.org/1999/xlink">
 <defs>
  <style type="text/css">
   <![CDATA[
    .str0 {stroke:#D34939;stroke-width:24.06;stroke-linecap:round;stroke-linejoin:round;stroke-miterlimit:10}
    .fil22 {fill:none;fill-rule:nonzero}
    .fil16 {fill:#FEFEFE;fill-rule:nonzero}
    .fil21 {fill:#FFFEF6;fill-rule:nonzero}
    .fil2 {fill:#FAAB4C;fill-rule:nonzero}
    .fil12 {fill:#F58E69;fill-rule:nonzero}
    .fil1 {fill:#F16857;fill-rule:nonzero}
    .fil24 {fill:#F7F7F6;fill-rule:nonzero}
    .fil19 {fill:#F8F07E;fill-rule:nonzero}
    .fil20 {fill:#F9EF6D;fill-rule:nonzero}
    .fil18 {fill:#F1E7E3;fill-rule:nonzero}
    .fil27 {fill:#D9DAD9;fill-rule:nonzero}
    .fil25 {fill:#909495;fill-rule:nonzero}
    .fil13 {fill:#5F2F54;fill-rule:nonzero}
    .fil17 {fill:#363435;fill-rule:nonzero}
    .fil15 {fill:#4A2B49;fill-rule:nonzero}
    .fil23 {fill:#2C3C43;fill-rule:nonzero}
    .fil8 {fill:#396789;fill-rule:nonzero}
    .fil11 {fill:#375971;fill-rule:nonzero}
    .fil26 {fill:#252C31;fill-rule:nonzero}
    .fil4 {fill:#2C3040;fill-rule:nonzero}
    .fil3 {fill:#2C3248;fill-rule:nonzero}
    .fil14 {fill:#09AB00;fill-rule:nonzero}
    .fil10 {fill:#09AB00;fill-rule:nonzero}
    .fil5 {fill:#29C221;fill-rule:nonzero}
    .fil9 {fill:#29C221;fill-rule:nonzero}
    .fil6 {fill:#31DE28;fill-rule:nonzero}
    .fil7 {fill:#31DE28;fill-rule:nonzero}
    .fil28 {fill:#8AFA84;fill-rule:nonzero}
    .fil0 {fill:#8AFA84;fill-opacity:0.129412}
   ]]>
  </style>
 </defs>
 <g id="Layer_x0020_1">
  <metadata id="CorelCorpID_0Corel-Layer"/>
  <g id="_2120824793824">
   <path class="fil0" d="M2852.76 0c1159.34,0 2099.18,939.83 2099.18,2099.18 0,1159.34 -939.84,2099.18 -2099.18,2099.18 -1159.34,0 -2099.18,-939.84 -2099.18,-2099.18 0,-1159.34 939.83,-2099.18 2099.18,-2099.18z"/>
   <path class="fil1" d="M2593.11 2373.37c0,0 -2.81,-1.61 -7.6,-4.19 3.01,2 5.7,3.59 7.6,4.19z"/>
   <polygon class="fil2" points="2979.32,3088.23 -0,4109.31 1703.78,4504.82 3045.01,4504.82 4573.9,3291.04 "/>
   <path class="fil3" d="M3008.28 3212.66l-2331.83 813.95c-28.29,9.87 -26.1,50.59 3.1,57.37l1812.91 420.84 175.27 0 1437.06 -1083.15c21.22,-15.96 12.63,-49.6 -13.66,-53.44l-1068.67 -156.94c-4.77,-0.67 -9.62,-0.22 -14.19,1.37z"/>
   <path class="fil4" d="M2863.53 4246.4c-125.26,0 -232.51,-44.61 -232.51,-44.61 -258.46,-61.56 -424.91,-136.31 -424.91,-136.31 -406.17,-12.3 -332.02,-180.01 -332.02,-180.01 -269.84,-39.02 -362.61,-102.53 -328.72,-162.15l183.83 -64.17c54.83,51.25 117.93,99.24 186.29,141.62 -63.65,36.61 -59.32,83.33 53.22,135.27 83.01,38.32 192.98,46.83 274.34,46.83 21.72,0.02 41.4,-0.6 57.96,-1.4 9.48,16.09 20.31,32.26 32.62,48.39 0,0 144.19,32.72 357.74,44.38 71.26,62.34 150.66,111.5 210.84,111.5 11.57,0 22.42,-1.8 32.35,-5.67 37.64,-14.69 46.47,-54.18 39.2,-105.25 90.54,-4.77 186,-14.8 283.12,-32.45 11.11,-2.02 22.03,-4.13 32.91,-6.4l-143.12 107.88c-17.57,7.33 -34.18,16.79 -49.25,28.83 -70.57,56.38 -155.74,73.72 -233.89,73.72z"/>
   <path class="fil5" d="M2266.79 3151.93c-22.25,-1.69 -42.26,-5.95 -60.2,-12.32l-3.43 -1.3c-227.18,-86.51 -125.27,-544.23 -115.89,-935.39 10.12,-422.6 202.33,-626.04 372.43,-696.58l1.28 -0.6c0,0 10.25,8.08 24.84,43.07 17.82,42.38 41.97,123.9 62.39,277.93 37.23,281.26 27.09,1348.93 -281.41,1325.19z"/>
   <path class="fil6" d="M3864.11 3291.86c0,0 -535.55,379.64 -1023.6,298.23 -325.64,-54.22 -519.99,-203.61 -613.31,-297.06 -46.54,-46.51 -67.9,-79.13 -67.9,-79.13 0,0 20.11,-30.06 43.85,-75.6l2.55 -4.93 0 -0.09c19.31,-37.35 40.5,-84.16 55.3,-132.84 19.63,-64.77 11.91,-190.93 4.04,-382.41 -5.82,-139.07 -11.71,-312.82 -7.48,-522.54 4.52,-219.89 44.64,-360.62 88.1,-449.13 50.34,-102.7 105.25,-135.2 114.03,-140.03l1.28 -0.6c216.9,-118.65 444.01,-105.06 444.01,-105.06 12.8,0.99 25.4,2.17 37.83,3.54 316.27,32.74 533.87,148.33 672.56,314.1 125.84,150.21 186.83,341.71 197.88,550.06 23.76,447.35 50.87,1023.5 50.87,1023.5z"/>
   <path class="fil7" d="M3864.11 3291.86c0,0 -198.38,140.65 -463.73,232.3 -97.17,33.63 -203.41,60.74 -312.2,71.85 -82.09,8.46 -165.57,7.79 -247.67,-5.92 -325.64,-54.22 -519.99,-203.61 -613.31,-297.06 -46.54,-46.51 -67.9,-79.13 -67.9,-79.13 0,0 20.11,-30.06 43.85,-75.6l2.55 -4.93 0 -0.09c19.31,-37.35 40.5,-84.16 55.3,-132.84 19.63,-64.77 11.91,-190.93 4.04,-382.41 54.71,26.12 106.65,61.98 151.99,96.88 103.56,79.93 172.26,154.41 159.25,92.94 -21.57,-102.51 -177.98,-361.48 -172.58,-383.08 2.12,-8.63 93.18,44.91 218.93,98.43 188.65,80.29 455.39,160.57 617.2,31.07 130.61,-104.48 166.31,-286.3 186.68,-453.94 21.89,-178.91 26.33,-341.59 110.08,-376.88 21.19,-8.87 47.92,-10.27 78.78,-5.15 125.84,150.21 186.83,341.71 197.88,550.06 23.76,447.35 50.87,1023.5 50.87,1023.5z"/>
   <path class="fil8" d="M2345.49 2663.8c-4.71,-3.07 -9.48,-6.13 -14.28,-9.14 -7.68,-9.65 -15.2,-18.64 -22.61,-26.96 -9.58,-10.87 -18.91,-20.66 -28.05,-29.44 23.43,21.52 45,43.41 64.94,65.54z"/>
   <path class="fil9" d="M2649.68 3438.5c0,0 0,0 -0.02,0 -93.59,-85.8 -90.8,-222.79 -184.8,-423.36 1.59,-11.33 2.34,-23.09 2.31,-35.12 -0.07,-87.53 -40.29,-190.04 -94.21,-268.57 -7.89,-11.43 -15.59,-22.27 -23.16,-32.43 -6.31,-8.54 -12.48,-16.66 -18.59,-24.36 4.81,3.01 9.57,6.06 14.28,9.14 136.18,151.22 195.23,314.05 231.26,448.39 36.15,135.06 105.61,200.29 219.72,200.29 8.7,0 17.68,-0.37 26.92,-1.14 14.59,20.01 30.13,40.12 46.63,60.35 -72.23,23.14 -146.56,45.79 -220.35,66.81z"/>
   <path class="fil9" d="M2649.66 3438.5c-49.28,-34.85 -113.96,-81.25 -184.07,-133.32 -59.79,-44.54 -123.56,-93.2 -185.13,-142.32 7.43,-0.26 15.04,-0.82 22.83,-1.7 104,-11.76 151.12,-70.38 161.58,-146.02 94,200.57 91.21,337.57 184.8,423.36 0.02,0 0.02,0 0.02,0l-0.02 0z"/>
   <path class="fil9" d="M2823.39 3311.34c-84.55,-115.81 -137.92,-228.31 -168.47,-342.15 -37.93,-141.4 -34.68,-212.79 -34.68,-212.79l0 0c0,0 25.4,38.65 68.38,97.07 80.09,109.06 221.07,287 371.27,411.61 -8.32,-0.99 -16.5,-1.47 -24.53,-1.47 -19.91,0 -38.82,3.06 -56.28,9.53 -58.69,21.67 -110.38,34.49 -155.69,38.19zm1036.2 -114.32c-40.84,-26.08 -89.31,-43.29 -140.9,-52.72 65.69,-128.4 98.11,-288.2 114.85,-445.55 0.41,-3.82 0.8,-7.72 1.18,-11.64 10.42,208.75 19.65,400.52 24.87,509.91z"/>
   <path class="fil10" d="M2870.03 3371.69c-16.5,-20.23 -32.04,-40.33 -46.63,-60.35 45.31,-3.7 97,-16.53 155.69,-38.19 17.46,-6.47 36.37,-9.53 56.28,-9.53 8.03,0 16.21,0.48 24.53,1.47 12.44,10.32 24.97,20.3 37.53,29.83 -70.91,25.2 -147.88,51.28 -227.39,76.77z"/>
   <path class="fil7" d="M2942.81 1404.2c-138.18,22.97 -311.84,65.67 -457,144.6 -51.26,27.78 -98.85,60.01 -140.15,97.56 -9.76,8.87 -19.13,17.94 -28.1,27.42 -265.51,278.53 -178.37,939.92 -187.33,960.61 0,0 45.63,290.14 75.47,498.89l0 0.09 0.89 6.23c9,62.17 16.36,116.66 20.62,153.43 -46.54,-46.51 -67.9,-79.13 -67.9,-79.13 0,0 20.11,-30.06 43.85,-75.6 -227.18,-86.51 -125.27,-544.23 -115.89,-935.39 10.12,-422.6 202.33,-626.04 372.43,-696.58l1.28 -0.6c216.9,-118.65 444.01,-105.06 444.01,-105.06 12.8,0.99 25.4,2.17 37.83,3.54z"/>
   <path class="fil11" d="M2861.68 2008.17c0,21.02 -17.05,38.07 -38.1,38.07 -21.03,0 -38.08,-17.05 -38.08,-38.07 0,-21.05 17.05,-38.1 38.08,-38.1 21.05,0 38.1,17.05 38.1,38.1z"/>
   <path class="fil11" d="M2863.17 2188.53c0,21.03 -17.05,38.08 -38.1,38.08 -21.02,0 -38.07,-17.05 -38.07,-38.08 0,-21.04 17.05,-38.1 38.07,-38.1 21.05,0 38.1,17.06 38.1,38.1z"/>
   <path class="fil12" d="M2874.43 2508.95c0,0 -193.19,-206.75 -294.88,-230.47 -101.67,-23.71 13.57,94.89 13.57,94.89 0,0 -135.56,-77.95 -233.86,-77.95 -98.28,0 -37.28,315.2 338.94,372.81l176.23 -159.28z"/>
   <path class="fil1" d="M2538.66 2284.04c-9.05,23.91 54.46,89.33 54.46,89.33 44.9,33.48 45.94,-33.36 -54.46,-89.33z"/>
   <path class="fil7" d="M3833.54 2698.75c-33.89,318.63 -132.14,647.32 -440.52,704.95 -236.27,44.06 -563.96,-359.01 -704.4,-550.22 -42.98,-58.43 -68.38,-97.07 -68.38,-97.07 0,0 5.21,-99.45 65.25,-178.78 36.53,-48.39 93.49,-89.37 182.1,-95.8 0,0 53.33,21 127.35,56.07 96.96,45.84 229.22,115.93 323.43,194.78 0,0 -81.3,-369.49 -118.55,-599.94 0,0 -14.56,-306.38 291.44,-416.85 172,-62.15 226.28,119.13 280,280.64 73.21,220.01 81.8,518.52 62.27,702.23z"/>
   <path class="fil9" d="M3465.16 1742.69c-303.66,118.75 -265.32,390.04 -265.32,390.04 37.25,230.45 118.55,599.92 118.55,599.92 0,0 -23.43,-358.84 -62.56,-598.09 0,0 -37.93,-215.84 249.59,-368.07 51.13,-27.06 80.82,-31.41 80.82,-31.41 0,0 -38.68,-24.61 -121.08,7.62z"/>
   <path class="fil10" d="M3097.42 3294.92c-163.92,-124.47 -322.06,-323.36 -408.8,-441.44 -42.98,-58.43 -68.38,-97.07 -68.38,-97.07 0,0 5.21,-99.45 65.25,-178.78 111.46,155.04 385.1,484.2 629.83,484.2 3.39,0 6.78,-0.07 10.17,-0.19 317.23,-12.01 -0.31,-322.37 -7,-328.87 4.23,0.89 118.26,28.36 242.83,129.22 8.61,6.97 17.25,10.29 25.86,10.29 101.47,0 197.88,-462.86 184.07,-875.74 51.91,155.98 71.33,351.43 71.27,517.44 -0.03,68.14 -3.32,131.33 -9,184.8 -16.74,157.35 -49.17,317.15 -114.85,445.55 -32.57,-5.95 -66.36,-8.8 -100.18,-8.8 -81.75,0 -163.92,16.61 -230.13,46.17 -68.04,30.36 -170.8,70.53 -290.96,113.25z"/>
   <path class="fil13" d="M2994.95 2537.89c-249.85,10.27 -297.84,212.8 -306.3,315.59 -43.01,-58.43 -68.41,-97.07 -68.41,-97.07 0,0 13.59,-257.63 247.35,-274.58 0,0 53.33,21 127.35,56.07z"/>
   <path class="fil10" d="M2303.28 3161.16c-153.17,17.37 -235.86,-90.75 -285.52,-205.17l0 -0.12c-24.15,-55.66 -40.41,-112.74 -53.2,-157.59 -0.98,-3.34 -1.97,-6.59 -2.87,-9.86 -38.46,-134.7 20.01,-231.39 134.72,-252.6 72.54,-13.28 134.53,3.68 212.2,91.88 13.3,14.99 27.01,32.04 41.2,51.33 7.57,10.15 15.27,21 23.16,32.43 110.66,161.15 163.61,423.32 -69.68,449.71z"/>
   <path class="fil14" d="M2280.45 3162.87c-36.68,-29.27 -72.59,-58.69 -106.38,-87.52 -42.48,-36.25 -89.96,-64.1 -139.46,-83.51 -6.01,-11.79 -11.62,-23.76 -16.86,-35.83 47.12,42.38 151.72,81.65 238.14,88.75 5.1,0.41 10.01,0.63 14.7,0.63 155.38,0 104.17,-224.2 79.2,-366.35 7.57,10.15 15.27,21 23.16,32.43 53.93,78.53 94.14,181.04 94.21,268.57 0.07,92.09 -44.28,167.62 -163.89,181.14 -7.79,0.89 -15.39,1.44 -22.83,1.7z"/>
   <path class="fil9" d="M2090.68 2845.93c-65.04,0 -103.54,-20.83 -126.13,-47.65l0 0c-0.98,-3.34 -1.97,-6.59 -2.87,-9.86 -7.96,-27.88 -11.76,-54.14 -11.78,-78.43 -0.05,-93.06 55.53,-157.33 146.5,-174.17 14.1,-2.58 27.78,-4.02 41.26,-4.02 55.97,0 108.35,24.82 170.94,95.89 13.49,90.56 -43.46,205.96 -192.28,217.22 -8.96,0.67 -17.51,1.02 -25.64,1.02z"/>
   <path class="fil13" d="M2093.86 2548.04c-101.41,24.58 -155.84,115.74 -109.27,179.12 43.13,58.72 230.74,16.38 245.16,-86.42 13.74,-97.7 -76.8,-107.04 -135.89,-92.7z"/>
   <path class="fil12" d="M2011.45 2677.01c84.29,39.66 177.35,-21.5 186.29,-75.21 8.94,-53.76 -75.24,-191.7 -120.03,-259.74 -44.76,-68.09 -188.06,-87.79 -186.28,80.57 1.78,168.39 89.57,240.04 120.02,254.38z"/>
   <path class="fil13" d="M2486.99 3976.63c-456.9,6.3 -998.27,-406.85 -967.02,-726.07 8.85,-90.87 46.71,-160.45 101.69,-208.74 138.09,-121.8 384.48,-109.78 552.42,33.53 90.57,77.25 196.12,158.76 291.51,229.84 151.8,112.74 278.05,198.87 278.05,198.87 181.53,87.62 200.36,466.28 -256.64,472.58z"/>
   <path class="fil15" d="M1915.49 3800.76c-227.66,-141.11 -396.87,-344.5 -396.82,-523.54 0,-8.96 0.44,-17.83 1.3,-26.66 8.85,-90.87 46.71,-160.45 101.69,-208.74 157.13,275.67 571.66,438.95 763.9,438.95 61.12,0 99.75,-16.5 100.55,-51.14 1.07,-48.57 -7.8,-90.17 -20.52,-124.44 70.12,52.07 134.79,98.46 184.07,133.32 -118.84,33.89 -236.19,63.54 -341.06,84.35 0,0 -43.27,66.94 -60.18,165.79 -51.88,17.96 -153.12,52.15 -249.83,79.57 -34.06,9.65 -62.22,20.56 -83.1,32.54z"/>
   <path class="fil16" d="M2740.56 3541.62c-175.92,-35.2 -460.07,291.03 -219.1,378.68 240.98,87.62 331.73,-156.48 309.84,-253.51 -11.23,-49.7 -28.19,-112.67 -90.74,-125.17z"/>
   <path class="fil17" d="M2740.56 3541.62l2.36 -11.81c-9.79,-1.95 -19.8,-2.86 -29.94,-2.86 -67.28,0.24 -140.08,39.47 -197.26,93.06 -56.91,53.85 -98.81,122.33 -99.12,186.29 -0.05,26.07 7.38,51.47 24.02,73.16 16.63,21.73 42,39.52 76.73,52.15 36.76,13.35 70.52,19.39 101.29,19.39 78.86,0.12 136.86,-39.98 173.63,-91.09 36.94,-51.19 54.11,-113.17 54.21,-161.66 0,-12.29 -1.1,-23.76 -3.44,-34.11 -5.7,-25.06 -12.84,-54.3 -27.42,-79.85 -14.41,-25.5 -37.61,-47.57 -72.7,-54.48l-2.36 11.81 -2.36 11.79c27.47,5.62 44.02,21.28 56.55,42.83 12.36,21.48 19.29,48.56 24.82,73.19 1.85,8.2 2.86,17.99 2.86,28.81 0.1,42.86 -16,101.24 -49.64,147.57 -33.79,46.43 -83.73,81 -154.15,81.13 -27.61,0 -58.55,-5.39 -93.06,-17.94 -31.56,-11.5 -52.61,-26.84 -65.83,-44.14 -13.23,-17.33 -19.05,-36.89 -19.1,-58.56 -0.31,-52.99 37.52,-118.17 91.57,-168.75 53.78,-50.82 123.15,-86.79 180.76,-86.54 8.68,0 17.12,0.8 25.22,2.41l2.36 -11.79z"/>
   <path class="fil9" d="M2671.67 3579.17c-100.13,40.7 -168.99,175.24 -156.46,266.01 12.51,90.76 291.06,384.96 419.35,334.89 128.32,-50.08 -78.22,-388.08 -115.76,-491.37 -37.57,-103.28 -147.13,-109.53 -147.13,-109.53z"/>
   <path class="fil9" d="M2283.68 3676.24c0,0 -147.15,52.89 -285.09,91.98 -137.92,39.08 -179.31,98.85 -29.88,167.81 149.44,68.99 386.21,41.39 386.21,41.39l-71.24 -301.18z"/>
   <path class="fil13" d="M3256.89 4042.36c-481.94,87.62 -923.25,-12.5 -923.25,-12.5 -34.61,-45.34 -57.46,-90.89 -71.74,-135.03 -64.56,-199.87 46.71,-371.97 46.71,-371.97 363.07,-72.03 876.35,-250.43 1079.78,-341.19 192.08,-85.74 518.09,-62.57 580.19,159.06 3.75,13.12 6.42,26.8 8.18,41.3 31.24,259.69 -237.83,572.71 -719.87,660.33z"/>
   <path class="fil15" d="M2839.46 4078.3c-292.26,0 -505.82,-48.44 -505.82,-48.44 -12.31,-16.14 -23.14,-32.3 -32.62,-48.39 -17.17,-29.18 -29.92,-58.21 -39.13,-86.64 239.58,-20.4 1173.89,-125.56 1706.68,-554.1 3.75,13.12 6.42,26.8 8.18,41.3 1.66,13.69 2.45,27.54 2.45,41.5 -0.17,250.57 -265.68,535.86 -722.31,618.83 -146.65,26.68 -289.59,35.94 -417.43,35.94z"/>
   <path class="fil13" d="M2932.06 1349.83c-284.7,47.45 -474.5,352.48 -94.93,525.35 0,0 305.06,-135.58 305.06,-335.56 0,-199.94 -210.13,-189.79 -210.13,-189.79z"/>
   <path class="fil12" d="M2668.83 1485.11c0,0 9.24,268.83 184.94,239.74 166.11,-27.52 216.88,-264.85 216.88,-264.85l0 -317.37 -401.82 342.48z"/>
   <path class="fil1" d="M2685.98 1580.77c165.53,80.48 282.78,-111.94 331.52,-327.01l-348.67 231.35c0,0 1.32,44.81 17.15,95.66z"/>
   <path class="fil12" d="M3187.42 897.76c-0.28,16.26 -5.62,29.44 -7.69,44.23 -15.76,116.68 -75.19,189.13 -100.33,212.89l-0.09 0c-6.3,6.02 -10.15,8.94 -10.15,8.94 -95.3,246.43 -279.32,407.35 -476.43,338.37 -13.49,-4.74 -25.61,-10.15 -36.34,-16.26 -146.77,-82.78 -54.22,-286.3 -35.89,-469.91 7.29,-72.66 21.69,-153.67 52.44,-224.53 4.61,-10.72 9.64,-21.28 15.08,-31.52 55.87,-105.45 154.92,-179.77 331.63,-152.96 32.04,4.81 68.88,16.74 104.74,35.67 85.36,45.12 165.29,130.17 163.02,255.07z"/>
   <path class="fil1" d="M3024.39 642.69c-84.16,-15.97 -229.43,-19.72 -324.44,109.29 -140.44,190.71 -103.19,325.62 -167.04,554.89 -23.57,84.64 -6.88,141.33 23.48,179.07 -146.77,-82.78 -54.22,-286.3 -35.89,-469.91 7.29,-72.66 21.69,-153.67 52.44,-224.53 4.61,-10.72 9.64,-21.28 15.08,-31.52 55.87,-105.45 154.92,-179.77 331.63,-152.96 32.04,4.81 68.88,16.74 104.74,35.67z"/>
   <path class="fil13" d="M3187.42 897.76c-2.74,144.74 -79.73,230.42 -108.02,257.12l-0.09 0c-43.87,24.24 -79.13,10.56 -79.13,10.56l10.19 -50.66c7.7,-38.12 7.15,-77.83 -4.83,-114.82 -25.49,-78.7 1.63,-184.32 1.63,-184.32 -150.3,-75.19 -323.07,-68.69 -419.15,-55.67 55.87,-105.45 154.92,-179.77 331.63,-152.96 108.4,16.36 271.04,113.33 267.77,290.75z"/>
   <path class="fil18" d="M3187.42 897.76c-0.28,16.26 -1.58,31.82 -3.65,46.59 -238.21,-141.33 -534.76,-152.46 -610.83,-152.85 4.61,-10.72 9.64,-21.28 15.08,-31.52 55.87,-105.45 154.92,-179.77 331.63,-152.96 108.4,16.36 271.04,113.33 267.77,290.75z"/>
   <path class="fil19" d="M2670.3 795.97c-0.1,0 -0.19,0 -0.27,-0.03 0,0 0,-0.02 0.03,-0.02 0.07,0 0.17,0 0.27,0.02l-0.03 0.03z"/>
   <path class="fil20" d="M2670.03 795.94c-43.6,-3.48 -77.64,-4.33 -97.09,-4.43l0 -0.03c19.48,0.1 53.42,0.91 97.12,4.43 -0.03,0 -0.03,0.02 -0.03,0.02z"/>
   <path class="fil21" d="M2580.17 775.55c2.5,-5.27 5.12,-10.46 7.84,-15.61 48.1,-90.75 128.15,-158.43 262.22,-158.43 1.68,0 3.39,0 5.09,0.02 -1.7,-0.02 -3.41,-0.02 -5.09,-0.02 -134.05,0 -214.14,67.7 -262.22,158.46 -2.72,5.12 -5.34,10.31 -7.84,15.58z"/>
   <path class="fil21" d="M2923.35 607.59c-1.08,-0.17 -2.17,-0.33 -3.24,-0.5 -0.15,-0.03 -0.3,-0.05 -0.46,-0.07 1.22,0.17 2.45,0.39 3.7,0.58z"/>
   <path class="fil20" d="M2924.19 607.74c-1.34,-0.22 -2.71,-0.46 -4.08,-0.65 1.07,0.17 2.16,0.33 3.24,0.5 0.29,0.05 0.58,0.09 0.84,0.15z"/>
   <path class="fil16" d="M2670.32 795.94c-0.1,-0.02 -0.19,-0.02 -0.27,-0.02 -43.7,-3.52 -77.64,-4.33 -97.12,-4.43 2.3,-5.36 4.74,-10.7 7.24,-15.94 2.5,-5.27 5.12,-10.46 7.84,-15.58l0 0c48.08,-90.76 128.17,-158.46 262.22,-158.46 1.68,0 3.39,0 5.09,0.02 19.82,0.26 40.82,1.97 63.05,5.29 0.43,0.07 0.84,0.12 1.28,0.19l0 0c1.51,0.22 3.03,0.46 4.54,0.72 6.04,1.04 12.24,2.36 18.54,3.87 2.48,0.6 5.03,1.37 7.54,2.03 5.55,1.48 11.13,3.05 16.83,4.9 2.96,0.96 5.94,2.04 8.94,3.1 5.37,1.9 10.75,3.94 16.19,6.18 3.12,1.3 6.25,2.62 9.42,4.02 5.37,2.38 10.7,4.98 16.07,7.67l6.06 3.05c-23.14,-4.35 -50.87,-7.76 -80.86,-7.76 -79.19,0 -174.24,23.83 -242.98,117.18 -11.04,15.01 -20.64,29.58 -29.63,43.97z"/>
   <path class="fil22 str0" d="M2694.39 1078.59c0,0 -55.85,90.72 -58.64,108.88 -2.76,18.14 64.23,36.3 64.23,36.3"/>
   <path class="fil12" d="M3045.3 1180.9c0,0 36.65,-91.64 108.57,-81.77 71.94,9.86 3.78,249.28 -154.2,201.34l45.63 -119.57z"/>
   <path class="fil22 str0" d="M3047.31 1261.87c0,0 24.63,-119.9 105.93,-119.9"/>
   <path class="fil22 str0" d="M3090.23 1173.23c0,0 20.97,28.91 18.69,75.4"/>
   <polygon class="fil10" points="4399.37,735.12 4346.79,780.33 4276.24,698.28 4328.81,653.07 "/>
   <path class="fil7" d="M4378.1 653.36l-108.29 93.13 -76.05 -88.44c29.88,-41.93 65.59,-73.65 108.29,-93.12l76.05 88.44z"/>
   <path class="fil23" d="M4287.94 730.9c-0.6,0.52 -18.94,-19.58 -40.97,-44.9 -22.03,-25.33 -39.4,-46.28 -38.8,-46.8 0.6,-0.52 18.94,19.58 40.98,44.91 22.03,25.32 39.4,46.27 38.8,46.79z"/>
   <path class="fil23" d="M4308.58 713.15c-0.31,0.25 -4.97,-4.93 -12.29,-13.49 -7.31,-8.56 -17.27,-20.51 -28.18,-33.77 -10.57,-12.99 -20.14,-24.74 -27.77,-34.11 -3.18,-3.96 -5.94,-7.41 -8.34,-10.39 -1.98,-2.5 -3,-3.72 -3,-3.85 1.07,-1.03 19.54,19.96 41.34,46.51 10.91,13.27 20.62,25.42 27.54,34.32 6.91,8.89 11.01,14.53 10.7,14.78z"/>
   <path class="fil23" d="M4336.05 689.52c-0.3,0.25 -5,-5 -12.36,-13.68 -7.35,-8.69 -17.37,-20.8 -28.31,-34.26 -10.59,-13.21 -20.17,-25.15 -27.81,-34.67 -3.16,-4.06 -5.91,-7.57 -8.29,-10.61 -2,-2.59 -2.83,-3.77 -2.89,-4.02 0.35,-0.46 5.35,4.76 12.75,13.33 7.46,8.61 17.53,20.68 28.48,34.15 10.95,13.47 20.71,25.79 27.66,34.8 6.95,9.01 11.09,14.71 10.78,14.96z"/>
   <path class="fil23" d="M4361.1 667.37c-0.61,0.52 -18.82,-19.83 -40.67,-45.44 -21.86,-25.62 -39.08,-46.8 -38.47,-47.31 0.6,-0.52 18.81,19.83 40.67,45.44 21.85,25.61 39.07,46.79 38.47,47.31z"/>
   <polygon class="fil10" points="5182.29,790.58 5134.39,740.45 5212.62,665.69 5260.53,715.82 "/>
   <path class="fil7" d="M5262.81 765.06l-98.67 -103.26 84.32 -80.59c43.45,27.64 76.99,61.65 98.68,103.26l-84.33 80.58z"/>
   <path class="fil23" d="M5180.67 679.09c-0.56,-0.57 18.56,-19.95 42.69,-43.27 24.14,-23.33 44.15,-41.78 44.7,-41.2 0.56,0.57 -18.55,19.94 -42.69,43.28 -24.13,23.32 -44.15,41.76 -44.7,41.19z"/>
   <path class="fil23" d="M5199.47 698.77c-0.27,-0.29 4.66,-5.22 12.82,-12.98 8.17,-7.75 19.58,-18.32 32.26,-29.91 12.42,-11.24 23.64,-21.41 32.6,-29.52 3.79,-3.38 7.08,-6.32 9.94,-8.87 2.4,-2.11 3.56,-3.19 3.69,-3.2 1.08,1.01 -18.92,20.56 -44.28,43.72 -12.68,11.59 -24.31,21.93 -32.83,29.29 -8.52,7.37 -13.93,11.76 -14.2,11.47z"/>
   <path class="fil23" d="M5224.5 724.97c-0.27,-0.3 4.74,-5.27 13.02,-13.07 8.28,-7.8 19.85,-18.43 32.72,-30.07 12.63,-11.27 24.06,-21.46 33.16,-29.59 3.88,-3.37 7.26,-6.3 10.17,-8.83 2.47,-2.13 3.62,-3.02 3.86,-3.1 0.48,0.33 -4.47,5.59 -12.64,13.44 -8.2,7.89 -19.73,18.58 -32.61,30.22 -12.88,11.64 -24.67,22.03 -33.3,29.45 -8.64,7.41 -14.12,11.84 -14.38,11.55z"/>
   <path class="fil23" d="M5247.93 748.82c-0.55,-0.57 18.81,-19.83 43.24,-42.99 24.43,-23.17 44.69,-41.48 45.23,-40.9 0.56,0.57 -18.81,19.82 -43.24,42.99 -24.43,23.17 -44.69,41.48 -45.23,40.9z"/>
   <polygon class="fil10" points="4736.31,604.52 4818.4,604.52 4818.4,476.41 4736.31,476.41 "/>
   <path class="fil7" d="M4862.41 514.72l-169.07 0 0 -138.07c59.19,-14.58 115.72,-15.47 169.07,0l0 138.07z"/>
   <path class="fil23" d="M4864.4 377.23c0.08,0.18 -2.14,1.27 -6.24,3.09 -4.07,1.88 -10.16,4.16 -17.8,6.56 -7.65,2.45 -16.96,4.69 -27.42,6.5 -10.49,1.66 -22.13,2.81 -34.4,2.92 -12.27,0.01 -23.93,-1.03 -34.44,-2.59 -10.48,-1.71 -19.81,-3.86 -27.48,-6.24 -7.68,-2.33 -13.78,-4.55 -17.87,-6.39 -4.11,-1.78 -6.35,-2.85 -6.26,-3.03 0.2,-0.51 9.33,3.33 24.69,7.45 7.67,2.11 16.94,4.03 27.32,5.58 10.39,1.4 21.91,2.34 34.03,2.34 12.11,-0.12 23.61,-1.17 34,-2.67 10.36,-1.65 19.61,-3.66 27.26,-5.83 15.32,-4.27 24.41,-8.2 24.62,-7.69z"/>
   <path class="fil23" d="M4749.2 514.34c-0.8,0 -1.44,-26.5 -1.44,-59.2 0,-32.7 0.65,-59.2 1.44,-59.2 0.8,0 1.44,26.5 1.44,59.2 0,32.69 -0.65,59.2 -1.44,59.2z"/>
   <path class="fil23" d="M4781.37 515.14c-0.8,0 -1.44,-26.63 -1.44,-59.46 0,-32.85 0.65,-59.47 1.44,-59.47 0.79,0 1.43,26.62 1.43,59.47 0,32.84 -0.64,59.46 -1.43,59.46z"/>
   <path class="fil23" d="M4813.54 514.6c-0.8,0 -1.44,-26.62 -1.44,-59.46 0,-32.85 0.65,-59.47 1.44,-59.47 0.8,0 1.44,26.63 1.44,59.47 0,32.84 -0.64,59.46 -1.44,59.46z"/>
   <path class="fil23" d="M4840.32 514.6c-0.79,0 -1.44,-28.78 -1.44,-64.28 0,-35.5 0.65,-64.28 1.44,-64.28 0.8,0 1.44,28.78 1.44,64.28 0,35.5 -0.65,64.28 -1.44,64.28z"/>
   <path class="fil23" d="M4718.78 513.78c-0.8,0 -1.45,-28.78 -1.45,-64.28 0,-35.5 0.65,-64.28 1.45,-64.28 0.79,0 1.44,28.78 1.44,64.28 0,35.5 -0.65,64.28 -1.44,64.28z"/>
   <path class="fil10" d="M5364.61 1162.11c0,329.81 -267.37,597.19 -597.19,597.19 -329.81,0 -597.19,-267.37 -597.19,-597.19 0,-329.82 267.37,-597.19 597.19,-597.19 329.82,0 597.19,267.37 597.19,597.19z"/>
   <path class="fil24" d="M5268.97 1157.35c0,277 -224.55,501.55 -501.55,501.55 -277,0 -501.54,-224.55 -501.54,-501.55 0,-277 224.54,-501.55 501.54,-501.55 277,0 501.55,224.55 501.55,501.55z"/>
   <path class="fil23" d="M5268.97 1157.35c0,0 -0.17,-2.75 -0.35,-8.13 -0.33,-5.37 -0.13,-13.39 -1.06,-23.84 -1.26,-20.91 -4.74,-51.81 -14.3,-90.48 -5.11,-19.23 -11.33,-40.54 -20.57,-62.94 -9.06,-22.44 -20.23,-46.38 -34.91,-70.56 -29,-48.41 -70.59,-99.07 -127.26,-142.27 -28.21,-21.66 -60.29,-41.09 -95.64,-57.15 -35.33,-16.03 -73.93,-28.91 -115.1,-36.32 -41.09,-7.58 -84.6,-10.57 -129.02,-7.1 -22.25,1.32 -44.61,4.93 -67.06,9.38 -22.39,4.79 -44.74,11.21 -66.88,19.07 -88.26,31.96 -172.14,91.65 -232.56,174.44 -15.3,20.5 -28.69,42.64 -40.78,65.64 -6.16,11.46 -11.42,23.41 -16.79,35.37 -4.83,12.19 -9.82,24.36 -13.8,36.96 -8.2,25.07 -14.98,50.89 -19.04,77.37 -4.18,26.44 -6.37,53.37 -6.55,80.49 0.18,27.13 2.35,54.06 6.52,80.52 4.06,26.49 10.84,52.31 19.04,77.4 3.98,12.6 8.97,24.79 13.8,36.97 5.38,11.95 10.63,23.91 16.79,35.37 12.09,23.01 25.48,45.17 40.78,65.67 60.43,82.81 144.31,142.51 232.59,174.48 22.15,7.86 44.49,14.29 66.89,19.08 22.45,4.44 44.81,8.06 67.06,9.37 44.43,3.47 87.94,0.48 129.03,-7.1 41.18,-7.42 79.78,-20.3 115.11,-36.33 35.35,-16.06 67.43,-35.5 95.63,-57.16 56.67,-43.21 98.26,-93.87 127.25,-142.27 14.67,-24.18 25.83,-48.12 34.89,-70.56 9.24,-22.4 15.46,-43.71 20.57,-62.93 9.55,-38.67 13.03,-69.56 14.29,-90.48 0.93,-10.45 0.73,-18.47 1.06,-23.84 0.18,-5.37 0.35,-8.13 0.35,-8.13 0,0 0.03,2.76 -0.06,8.14 -0.22,5.37 0.07,13.4 -0.78,23.87 -1.07,20.94 -4.37,51.91 -13.77,90.71 -5.04,19.29 -11.2,40.67 -20.39,63.16 -9,22.54 -20.13,46.58 -34.78,70.88 -28.96,48.64 -70.57,99.59 -127.39,143.07 -28.28,21.8 -60.47,41.38 -95.95,57.56 -35.46,16.16 -74.24,29.15 -115.59,36.66 -41.3,7.68 -85,10.72 -129.66,7.29 -22.36,-1.31 -44.84,-4.91 -67.41,-9.36 -22.53,-4.8 -44.99,-11.23 -67.27,-19.13 -88.77,-32.06 -173.15,-92.05 -233.96,-175.3 -15.39,-20.62 -28.87,-42.89 -41.03,-66.03 -6.2,-11.53 -11.48,-23.56 -16.9,-35.57 -4.85,-12.26 -9.87,-24.51 -13.88,-37.19 -8.25,-25.23 -15.06,-51.21 -19.16,-77.85 -4.19,-26.61 -6.38,-53.7 -6.56,-80.98 0.18,-27.28 2.39,-54.35 6.58,-80.95 4.09,-26.63 10.92,-52.6 19.18,-77.82 4.01,-12.67 9.02,-24.92 13.88,-37.17 5.41,-12.02 10.7,-24.04 16.9,-35.56 12.16,-23.13 25.64,-45.4 41.03,-66.01 60.79,-83.22 145.17,-143.19 233.93,-175.25 22.28,-7.89 44.74,-14.33 67.26,-19.13 22.57,-4.44 45.04,-8.06 67.41,-9.36 44.65,-3.43 88.36,-0.39 129.64,7.28 41.36,7.5 80.13,20.49 115.59,36.65 35.48,16.18 67.67,35.75 95.96,57.55 56.82,43.48 98.44,94.42 127.4,143.07 14.65,24.3 25.78,48.34 34.79,70.87 9.19,22.5 15.35,43.89 20.39,63.18 9.4,38.81 12.7,69.77 13.77,90.72 0.85,10.47 0.56,18.5 0.78,23.87 0.08,5.38 0.06,8.13 0.06,8.13z"/>
   <path class="fil23" d="M5195.39 1139.15c-15.91,0.66 -28.87,0.06 -28.94,-1.35 -0.07,-1.41 12.76,-3.28 28.68,-4.18 15.89,-0.9 28.85,-0.3 28.94,1.35 0.07,1.65 -12.76,3.52 -28.67,4.19z"/>
   <path class="fil23" d="M5184.71 1254.62c-15.52,-3.63 -27.84,-7.68 -27.53,-9.06 0.31,-1.37 13.18,0.27 28.75,3.66 15.56,3.38 27.89,7.43 27.52,9.05 -0.36,1.61 -13.24,-0.02 -28.74,-3.65z"/>
   <path class="fil23" d="M5143.3 1362.93c-13.96,-7.68 -24.74,-14.9 -24.07,-16.14 0.67,-1.24 12.62,3.81 26.7,11.26 14.07,7.46 24.84,14.69 24.06,16.14 -0.78,1.45 -12.73,-3.59 -26.69,-11.26z"/>
   <path class="fil23" d="M5074.35 1456.17c-11.41,-11.12 -19.86,-20.96 -18.88,-21.98 0.97,-1.02 11.14,7.03 22.72,17.98 11.56,10.95 20.03,20.79 18.87,21.98 -1.14,1.19 -11.31,-6.86 -22.71,-17.98z"/>
   <path class="fil23" d="M4983.01 1527.61c-8.01,-13.77 -13.52,-25.51 -12.31,-26.23 1.21,-0.72 8.86,9.76 17.08,23.41 8.21,13.63 13.73,25.38 12.31,26.22 -1.42,0.83 -9.07,-9.64 -17.07,-23.41z"/>
   <path class="fil23" d="M4875.83 1571.86c-3.99,-15.43 -6.13,-28.22 -4.78,-28.58 1.36,-0.37 5.89,11.79 10.13,27.15 4.23,15.35 6.37,28.15 4.78,28.57 -1.6,0.43 -6.13,-11.73 -10.13,-27.14z"/>
   <path class="fil23" d="M4760.69 1585.69c0.25,-15.93 1.6,-28.83 3.01,-28.82 1.41,0.01 2.54,12.93 2.53,28.86 -0.01,15.93 -1.36,28.83 -3.01,28.81 -1.65,-0.02 -2.78,-12.94 -2.53,-28.86z"/>
   <path class="fil23" d="M4646.01 1568.28c4.54,-15.28 9.31,-27.34 10.67,-26.94 1.36,0.39 -1.02,13.14 -5.32,28.48 -4.29,15.33 -9.07,27.39 -10.66,26.94 -1.59,-0.46 0.8,-13.22 5.32,-28.48z"/>
   <path class="fil23" d="M4540.31 1520.6c8.47,-13.5 16.31,-23.83 17.51,-23.09 1.2,0.74 -4.53,12.37 -12.8,26 -8.26,13.61 -16.1,23.94 -17.5,23.08 -1.4,-0.87 4.32,-12.51 12.79,-25.99z"/>
   <path class="fil23" d="M4451.23 1446.36c11.77,-10.74 22.08,-18.61 23.03,-17.57 0.96,1.03 -7.66,10.71 -19.26,21.63 -11.6,10.92 -21.91,18.79 -23.04,17.58 -1.12,-1.21 7.51,-10.9 19.27,-21.64z"/>
   <path class="fil23" d="M4385.22 1351.02c14.22,-7.19 26.27,-12.01 26.91,-10.76 0.64,1.25 -10.27,8.27 -24.37,15.68 -14.09,7.41 -26.14,12.22 -26.9,10.76 -0.76,-1.46 10.16,-8.48 24.36,-15.67z"/>
   <path class="fil23" d="M4347.34 1241.46c15.63,-3.09 28.54,-4.48 28.81,-3.1 0.28,1.37 -12.11,5.19 -27.69,8.52 -15.57,3.33 -28.47,4.72 -28.81,3.1 -0.33,-1.61 12.07,-5.43 27.69,-8.52z"/>
   <path class="fil23" d="M4340.19 1125.69c15.89,1.18 28.69,3.27 28.6,4.67 -0.09,1.41 -13.06,1.79 -28.97,0.85 -15.89,-0.94 -28.7,-3.02 -28.59,-4.68 0.11,-1.65 13.07,-2.02 28.96,-0.85z"/>
   <path class="fil23" d="M4364.28 1012.24c14.98,5.43 26.74,10.89 26.28,12.21 -0.47,1.33 -13.05,-1.8 -28.12,-7 -15.05,-5.19 -26.82,-10.65 -26.26,-12.21 0.55,-1.56 13.13,1.58 28.11,7z"/>
   <path class="fil23" d="M4418.02 909.51c12.98,9.24 22.84,17.67 22.04,18.82 -0.81,1.15 -12.1,-5.24 -25.22,-14.28 -13.11,-9.04 -22.98,-17.46 -22.03,-18.81 0.94,-1.35 12.23,5.04 25.2,14.28z"/>
   <path class="fil23" d="M4497.3 824.87c10.04,12.37 17.3,23.12 16.21,24.01 -1.08,0.9 -10.26,-8.28 -20.48,-20.5 -10.22,-12.2 -17.48,-22.96 -16.21,-24.01 1.27,-1.05 10.44,8.13 20.48,20.49z"/>
   <path class="fil23" d="M4596.32 764.53c6.34,14.61 10.44,26.92 9.16,27.49 -1.29,0.57 -7.65,-10.73 -14.23,-25.24 -6.56,-14.51 -10.67,-26.81 -9.16,-27.49 1.51,-0.67 7.88,10.63 14.23,25.24z"/>
   <path class="fil23" d="M4707.96 733.12c2.17,15.78 2.81,28.74 1.42,28.94 -1.39,0.2 -4.48,-12.39 -6.9,-28.14 -2.41,-15.74 -3.04,-28.7 -1.41,-28.94 1.63,-0.23 4.72,12.37 6.89,28.14z"/>
   <path class="fil23" d="M4823.94 732.66c-2.11,15.8 -4.94,28.46 -6.33,28.28 -1.4,-0.17 -1.02,-13.14 0.83,-28.96 1.86,-15.82 4.7,-28.48 6.33,-28.27 1.64,0.2 1.27,13.17 -0.83,28.96z"/>
   <path class="fil23" d="M4935.77 763.36c-6.28,14.64 -12.44,26.06 -13.73,25.51 -1.3,-0.54 2.57,-12.93 8.63,-27.66 6.05,-14.72 12.2,-26.15 13.72,-25.51 1.52,0.64 -2.33,13.03 -8.62,27.66z"/>
   <path class="fil23" d="M5035.21 823.02c-9.98,12.42 -18.96,21.78 -20.07,20.91 -1.1,-0.87 5.94,-11.77 15.72,-24.34 9.79,-12.57 18.77,-21.93 20.07,-20.9 1.3,1.02 -5.75,11.92 -15.72,24.33z"/>
   <path class="fil23" d="M5115.11 907.06c-12.94,9.3 -24.09,15.93 -24.92,14.79 -0.83,-1.13 8.86,-9.76 21.65,-19.26 12.78,-9.49 23.94,-16.12 24.91,-14.79 0.98,1.33 -8.72,9.96 -21.64,19.26z"/>
   <path class="fil23" d="M5169.56 1009.44c-14.96,5.48 -27.49,8.85 -27.98,7.53 -0.49,-1.32 11.16,-7.01 26.04,-12.72 14.87,-5.7 27.39,-9.08 27.97,-7.53 0.58,1.54 -11.07,7.24 -26.03,12.72z"/>
   <path class="fil23" d="M5194.39 1122.71c-15.88,1.26 -28.86,1.15 -28.98,-0.25 -0.12,-1.4 12.64,-3.76 28.5,-5.26 15.85,-1.5 28.83,-1.39 28.96,0.25 0.15,1.64 -12.62,3.99 -28.48,5.26z"/>
   <path class="fil16" d="M4572.67 614.74c0.02,0.05 -0.56,0.32 -1.7,0.79 -1.28,0.53 -2.97,1.2 -5.09,2.06 -4.45,1.87 -11.21,4.14 -19.59,7.86 -16.93,6.98 -41.04,18.18 -69.36,34.62 -14.19,8.17 -29.21,17.98 -44.97,29.02 -15.53,11.37 -31.91,23.84 -48.01,38.3 -32.44,28.62 -64.68,64.03 -93.01,105.15 -28.04,41.35 -49.32,84.26 -64.21,124.88 -7.63,20.26 -13.3,40.05 -18.26,58.65 -4.56,18.69 -8.25,36.26 -10.7,52.44 -5.02,32.36 -6.72,58.88 -7.06,77.19 -0.43,9.16 -0.07,16.27 -0.21,21.1 -0.03,2.29 -0.06,4.1 -0.07,5.49 -0.03,1.24 -0.07,1.88 -0.12,1.88 -0.05,0 -0.11,-0.63 -0.17,-1.87 -0.06,-1.39 -0.13,-3.2 -0.22,-5.49 -0.06,-4.82 -0.59,-11.95 -0.33,-21.13 0,-18.35 1.38,-44.97 6.16,-77.48 2.35,-16.26 5.93,-33.92 10.41,-52.71 4.87,-18.7 10.49,-38.6 18.08,-58.98 14.82,-40.85 36.15,-84.03 64.33,-125.59 28.48,-41.33 60.96,-76.87 93.63,-105.52 16.23,-14.47 32.74,-26.93 48.39,-38.26 15.88,-11 31.03,-20.75 45.33,-28.84 28.56,-16.26 52.85,-27.22 69.96,-33.89 8.46,-3.57 15.29,-5.67 19.81,-7.37 2.17,-0.74 3.88,-1.33 5.2,-1.78 1.17,-0.39 1.78,-0.56 1.8,-0.52z"/>
   <path class="fil16" d="M4739.36 582.41c0.03,0.41 -6.6,1.15 -17.3,2.28 -10.7,1.13 -25.46,2.72 -41.72,4.83 -16.27,2.11 -30.95,4.33 -41.58,5.97 -10.63,1.63 -17.22,2.61 -17.3,2.21 -0.08,-0.37 6.38,-2.06 16.94,-4.21 10.56,-2.16 25.25,-4.71 41.57,-6.83 16.31,-2.11 31.16,-3.39 41.92,-4.01 10.77,-0.61 17.44,-0.62 17.47,-0.24z"/>
   <path class="fil9" d="M4801.91 1718.79c-158.08,0 -280.04,-88.72 -354.12,-162.5 0.43,-3.19 0.85,-6.43 1.28,-9.61 44.94,36.7 95.15,64.84 146.85,83.52 22.28,7.89 44.74,14.33 67.27,19.13 22.57,4.45 45.05,8.06 67.41,9.36 12.31,0.95 24.55,1.4 36.69,1.4 12.17,0 24.24,-0.45 36.17,-1.33 60.55,-2.54 126.42,-15.61 189.43,-52.17 28.8,-14.46 55.22,-31.15 78.91,-49.41 56.82,-43.48 98.43,-94.43 127.39,-143.07 14.65,-24.3 25.78,-48.34 34.78,-70.88 9.19,-22.5 15.34,-43.87 20.39,-63.16 9.4,-38.8 12.7,-69.77 13.77,-90.71 0.65,-8.03 0.63,-14.62 0.69,-19.68 0.03,-1.25 0.06,-2.48 0.07,-3.72 0,-0.15 0.02,-0.31 0.02,-0.47 0.08,-5.38 0.06,-8.14 0.06,-8.14l0 0c0,0 0.03,-2.75 -0.06,-8.13 -0,-0.15 -0.02,-0.31 -0.02,-0.48 -0.02,-1.25 -0.04,-2.46 -0.07,-3.7 -0.06,-5.06 -0.03,-11.66 -0.69,-19.69 -0.68,-13.2 -2.23,-30.37 -5.64,-50.96 37.9,165.09 48.31,438.04 -232.83,584.51 -82.22,42.84 -158.44,59.89 -227.76,59.89z"/>
   <path class="fil25" d="M5020.39 1589.22c308,-205.87 253.35,-492.25 216.31,-604.48 6.69,19.21 14.33,43.47 21.41,71.48 5.96,28.81 8.43,52.24 9.45,69.16 0.93,10.45 0.73,18.47 1.06,23.84 0.18,5.38 0.35,8.13 0.35,8.13l0 0c0,0 -0.17,2.76 -0.35,8.13 -0.33,5.37 -0.13,13.39 -1.06,23.84 -1.26,20.92 -4.74,51.8 -14.29,90.48 -5.11,19.22 -11.32,40.53 -20.57,62.93 -9.06,22.44 -20.22,46.38 -34.89,70.56 -29,48.41 -70.58,99.06 -127.25,142.27 -15.57,11.96 -32.33,23.24 -50.17,33.66zm248.43 -419.54c0.01,-1.35 0.04,-2.59 0.07,-3.72 -0.02,1.25 -0.04,2.48 -0.07,3.72zm0.07 -20.94c-0.04,-1.13 -0.06,-2.36 -0.07,-3.7 0.03,1.24 0.06,2.46 0.07,3.7z"/>
   <path class="fil26" d="M4767.3 1660.09c-12.14,0 -24.37,-0.45 -36.69,-1.4 -22.36,-1.31 -44.84,-4.91 -67.41,-9.36 -22.53,-4.8 -44.99,-11.23 -67.27,-19.13 -51.7,-18.68 -101.92,-46.82 -146.85,-83.52 0.12,-0.95 0.25,-1.87 0.37,-2.82 58.2,47.85 145.67,100.23 258.07,111.49 22.49,2.25 46.83,3.9 72.37,3.9 7.76,0 15.62,-0.15 23.57,-0.49 -11.93,0.88 -24,1.33 -36.17,1.33zm225.6 -53.5c4.32,-2.51 8.61,-5.13 12.91,-7.85 4.96,-3.16 9.81,-6.33 14.59,-9.52 17.84,-10.41 34.59,-21.69 50.17,-33.66 56.67,-43.21 98.26,-93.87 127.25,-142.27 14.67,-24.18 25.83,-48.12 34.89,-70.56 9.24,-22.4 15.46,-43.71 20.57,-62.93 9.55,-38.67 13.03,-69.56 14.29,-90.48 0.93,-10.45 0.73,-18.47 1.06,-23.84 0.18,-5.37 0.35,-8.13 0.35,-8.13l0 0c0,0 -0.17,-2.75 -0.35,-8.13 -0.33,-5.37 -0.13,-13.39 -1.06,-23.84 -1.02,-16.92 -3.49,-40.35 -9.45,-69.16 1.48,5.88 2.96,11.96 4.38,18.17 3.41,20.59 4.96,37.76 5.64,50.96 0.65,8.03 0.63,14.63 0.69,19.69 0.01,1.35 0.04,2.58 0.07,3.7 0,0.16 0.02,0.32 0.02,0.48 0.08,5.38 0.06,8.13 0.06,8.13l0 0c0,0 0.03,2.76 -0.06,8.14 -0,0.15 -0.02,0.31 -0.02,0.47 -0.04,1.13 -0.06,2.37 -0.07,3.72 -0.06,5.06 -0.03,11.65 -0.69,19.68 -1.07,20.94 -4.37,51.91 -13.77,90.71 -5.04,19.29 -11.2,40.67 -20.39,63.16 -9,22.54 -20.13,46.58 -34.78,70.88 -28.96,48.64 -70.57,99.59 -127.39,143.07 -23.69,18.26 -50.11,34.95 -78.91,49.41z"/>
   <path class="fil25" d="M5236.7 984.74c-3.78,-10.85 -7.26,-20.11 -10.17,-27.48 0.86,1.98 1.7,3.94 2.54,5.91 2.35,6.21 4.95,13.44 7.63,21.57z"/>
   <path class="fil26" d="M5229.07 963.17c-0.83,-1.96 -1.67,-3.93 -2.54,-5.91 -5.15,-13.08 -8.48,-20.3 -8.5,-20.33 0.01,0.02 4.65,9.41 11.04,26.24zm-11.04 -26.24l0 0 0 0z"/>
   <path class="fil27" d="M4907.23 890.8c2.51,73.53 0.28,147.22 -6.67,220.46 -2.51,26.5 -5.74,53.32 -15.78,77.97 -10.03,24.65 -27.76,47.24 -52.26,57.65 -24.5,10.41 -56.04,6.09 -73.17,-14.28l147.88 -341.81z"/>
   <polygon class="fil7" points="4756.53,1117.8 4938.8,810.85 4828.79,1157.35 4772.59,1174.19 "/>
   <polygon class="fil10" points="4828.79,1157.35 4803.63,1124.47 4938.8,810.85 "/>
   <path class="fil24" d="M4831.25 1174.19c0,32.4 -26.27,58.67 -58.66,58.67 -32.4,0 -58.67,-26.27 -58.67,-58.67 0,-32.4 26.26,-58.67 58.67,-58.67 32.39,0 58.66,26.26 58.66,58.67z"/>
   <path class="fil7" d="M4831.25 1174.19c-0.38,0.03 -0.06,-5.23 -2.38,-14.19 -2.29,-8.78 -8.2,-21.67 -21.41,-31.63 -6.55,-4.86 -14.78,-8.98 -24.27,-10.63 -9.43,-1.59 -20.04,-1.26 -30.14,2.6 -5.09,1.78 -9.98,4.46 -14.48,7.83 -4.55,3.31 -8.68,7.42 -12.09,12.18 -7.04,9.38 -11,21.42 -11.11,33.83 0.11,12.41 4.07,24.46 11.11,33.84 3.41,4.76 7.54,8.87 12.09,12.18 4.5,3.38 9.4,6.06 14.49,7.83 10.1,3.87 20.71,4.19 30.14,2.6 9.48,-1.64 17.72,-5.76 24.26,-10.63 13.22,-9.96 19.12,-22.85 21.41,-31.63 2.32,-8.96 2,-14.21 2.38,-14.19 0,0 0.73,5.24 -1.29,14.46 -2,9.03 -7.74,22.46 -21.26,32.98 -6.7,5.14 -15.2,9.54 -25.06,11.36 -9.8,1.76 -20.89,1.52 -31.49,-2.45 -5.33,-1.83 -10.48,-4.6 -15.22,-8.12 -4.78,-3.45 -9.13,-7.74 -12.73,-12.72 -7.41,-9.81 -11.61,-22.48 -11.72,-35.51 0.11,-13.03 4.31,-25.69 11.72,-35.51 3.59,-4.98 7.94,-9.26 12.73,-12.72 4.73,-3.52 9.88,-6.29 15.21,-8.12 10.6,-3.96 21.69,-4.21 31.48,-2.45 9.86,1.82 18.37,6.22 25.07,11.37 13.52,10.52 19.26,23.94 21.26,32.98 2.02,9.22 1.29,14.46 1.29,14.46z"/>
   <path class="fil28" d="M4816.25 1174.19c0,24.11 -19.55,43.67 -43.66,43.67 -24.12,0 -43.66,-19.55 -43.66,-43.67 0,-24.11 19.54,-43.66 43.66,-43.66 24.11,0 43.66,19.55 43.66,43.66z"/>
  </g>
 </g>
</svg>
